<svg version="1.2" xmlns="http://www.w3.org/2000/svg" viewBox="0 0 842 842" width="842" height="842">
	<style>
		.s0 { fill: #f83712 } 
		.s1 { fill: #f85c12 } 
		.s2 { fill: #ff6600;stroke: #000000;stroke-miterlimit:10;stroke-width: 16.5 } 
		.s3 { fill: #000000 } 
		.s4 { fill: #2b1100 } 
		.s5 { fill: #552200 } 
		.s6 { fill: #fed24f } 
		.s7 { fill: #ffff00 } 
	</style>
	<g id="Layer 1">
		<path id="background" fill-rule="evenodd" class="s0" d="m845.64 130v731.57h-845.64v-731.57z"/>
		<path id="background2" fill-rule="evenodd" class="s1" d="m845.64 0v731.57h-845.64v-731.57z"/>
		<g id="campfire">
			<path id="Path 0" fill-rule="evenodd" class="s2" d="m398.19 136.46c-8.08 19.58-21.28 53.11-29.34 74.52-8.06 21.4-19.13 52.37-24.6 68.81-5.47 16.45-12.28 38.66-15.13 49.36-2.85 10.7-6.62 26.72-8.37 35.59-2.24 11.38-3.16 24.25-3.13 43.67 0.05 21.28 0.74 29.35 3.05 35.59 1.65 4.44 2.4 8.05 1.67 8.02-0.73-0.02-5.12-3.01-9.75-6.64-4.64-3.63-10.98-10.66-14.11-15.62-3.12-4.96-7.22-13.29-9.1-18.51-2.27-6.28-3.68-15.9-4.17-28.47-0.62-16.06 0.63-28.19 8.12-78.78 5.74-38.78 8.24-60.47 7.13-61.7-1.14-1.25-3.21 0.04-6.09 3.8-2.41 3.13-10.24 13.81-17.4 23.73-7.17 9.91-18.67 27-25.56 37.96-6.89 10.97-17.75 30.61-24.12 43.66-6.38 13.06-14.62 33.13-18.32 44.62l-6.72 20.88c0.14 61.86 0.55 65.96 4.99 81.63 2.66 9.4 8.08 24.34 12.03 33.22 3.96 8.87 8.72 18.49 10.58 21.36 1.86 2.87 7.18 7.26 11.81 9.76 4.63 2.5 16.4 7.53 26.15 11.18 9.76 3.64 26.91 8.81 38.13 11.47 11.21 2.66 30.76 6.31 43.44 8.11 16.17 2.29 34.95 3.25 62.95 3.2 25.72-0.05 48.39-1.18 63.83-3.19 13.16-1.72 33.51-5.2 45.21-7.75 11.71-2.54 28.86-7.13 38.13-10.2 9.26-3.06 22.03-7.77 28.37-10.45 10.84-4.59 12-5.69 19.64-18.71 4.47-7.61 10.35-19.81 13.07-27.12 2.72-7.31 6.57-19.7 8.57-27.53 2.89-11.36 3.63-19.97 3.64-42.71 0.01-25.48-0.49-30.27-4.77-45.56-2.63-9.4-10.25-29.05-16.92-43.66-6.68-14.62-19.61-38.54-28.73-53.16-9.12-14.61-22.79-34.9-30.37-45.08-7.58-10.18-14.58-18.94-15.55-19.46-0.98-0.52-2.2 0.12-2.72 1.42-0.52 1.31 2.63 27.15 7 57.43 4.37 30.28 8.47 60.18 9.12 66.44 0.64 6.27 0.24 17.8-0.88 25.63-1.12 7.83-3.86 18.51-6.08 23.73-2.22 5.22-6.78 12.84-10.12 16.94-3.34 4.09-9.27 9.88-13.17 12.86-3.9 2.99-7.49 5.39-7.98 5.34-0.49-0.04 0.63-8.4 2.47-18.56 2.43-13.38 3.4-27.38 3.5-50.75 0.1-24.15-0.67-36.57-3.09-49.36-1.77-9.4-5.34-23.49-7.94-31.32-2.59-7.83-8.12-20.65-12.29-28.48-4.16-7.83-14.79-23.21-23.61-34.17-8.83-10.96-19.73-25.91-24.22-33.22-4.49-7.31-11.17-20.12-14.83-28.48-3.66-8.35-7.98-20.31-9.59-26.57-1.62-6.27-3.32-20.15-3.78-30.85-0.6-14.06-1.46-19.46-3.1-19.46-1.25 0-8.87 16.02-16.95 35.59z"/>
			<path id="Path 1" fill-rule="evenodd" class="s3" d="m604.95 551.26c-3.79 7.07-6.15 8.88-19.13 14.66-8.14 3.62-15.6 6.74-16.57 6.93-0.98 0.19-8.96 2.6-17.73 5.36-8.78 2.75-26.73 7.09-39.9 9.63-13.16 2.54-34.31 5.8-46.99 7.23-14.45 1.64-36.94 2.38-60.28 1.99-20.48-0.34-40.03-1-43.45-1.46-3.41-0.47-9.39-1.34-13.29-1.94-3.91-0.6-10.29-1.52-14.19-2.04-3.9-0.52-8.69-1.31-10.64-1.75-1.95-0.45-10.73-2.58-19.5-4.74-8.78-2.16-17.76-4.36-19.95-4.9-2.2-0.53-3.99-0.54-3.99-0.02 0 0.52 4.39 3.51 9.75 6.64 5.37 3.13 14.45 10.61 20.2 16.61 8.01 8.38 10.74 12.69 11.75 18.51 0.73 4.18 0.98 11.44 0.57 16.14-0.41 4.7-3.3 14.31-6.43 21.36-3.13 7.04-6.3 12.41-7.03 11.93-0.73-0.48-3.12 1.65-5.32 4.75l-3.99 5.62c6.19 1.31 15.56 2.95 24.83 4.5 9.26 1.55 22.43 3.38 29.26 4.06 6.82 0.68 13.6 1.6 15.07 2.05 1.93 0.59 3.04-1.39 4.05-7.27 0.76-4.45 3.65-11.5 6.41-15.68 2.77-4.17 7.33-15.28 10.14-24.68 4.03-13.49 6.6-18.69 12.2-24.72 4.68-5.03 10.41-8.76 16.84-10.95 6.4-2.18 15.24-3.3 25.72-3.25 8.77 0.04 21.54 1.36 28.37 2.94 7.04 1.63 14.9 4.9 18.17 7.56 3.21 2.61 7 8.27 8.56 12.76 2.01 5.8 2.63 13.03 2.22 25.7-0.35 10.65-1.39 18.17-2.63 18.98q-2.05 1.36-0.89 10.4c1.04 8.06 1.64 9.04 5.6 9 2.43-0.02 14-1.29 25.71-2.82 11.7-1.52 25.55-3.44 30.78-4.25 5.23-0.82 9.8-1.91 10.16-2.43 0.36-0.52-2.85-4.79-7.13-9.49-4.27-4.7-9.96-13.67-12.63-19.94-3.34-7.84-4.87-14.64-4.93-21.83-0.07-7.86 0.98-12.29 4.24-17.94 2.38-4.13 9.12-11.72 14.97-16.87 5.85-5.14 14.23-11.25 18.62-13.57 4.39-2.32 10.77-4.77 14.18-5.44 3.42-0.67 9.2-0.37 12.86 0.67 5.19 1.48 9.85 5.81 21.28 19.77 8.04 9.83 15.22 17.94 15.95 18.03 0.74 0.09 1.28-3.89 1.21-8.85-0.07-5.09 1.64-13.98 3.92-20.41 2.22-6.26 5.87-13.74 8.1-16.61 2.23-2.87 4.06-5.65 4.06-6.17 0-0.52-4.19-2.97-9.31-5.45-5.12-2.47-17.09-7.17-26.59-10.44-9.51-3.27-17.66-5.94-18.12-5.94-0.45 0-2.77 3.63-5.14 8.07zm-385.14 12.21c-6.76 3.72-14.48 8.37-17.16 10.33l-4.88 3.56c6.3 8.09 9.89 15.35 12.05 21.36 2.15 6 4.11 13.48 4.36 16.61 0.24 3.14 0.84 5.67 1.33 5.64 0.48-0.04 2.08-1.11 3.54-2.38 1.47-1.27 9.44-10.27 17.73-20.01 11.74-13.77 16.55-18.08 21.73-19.45 4.23-1.13 8.9-1.08 12.85 0.13q6.21 1.9 6.21 0c0-1.05-0.8-1.9-1.78-1.9-0.97 0-2.37-0.29-3.1-0.64-0.73-0.35-2.93-1.31-4.88-2.14-1.95-0.82-10.32-4.52-18.61-8.23-8.29-3.7-15.53-7.39-16.09-8.19-0.56-0.8-6.55 1.58-13.3 5.31zm440.82 69.54c1.22 2.94 2.1 8.71 1.96 12.82-0.14 4.1 0.35 7.47 1.08 7.47 0.73 0.01 5.52-2.98 10.64-6.64 5.12-3.66 9.11-7.01 8.86-7.44-0.24-0.43-4.43-2.45-9.31-4.5-4.87-2.04-10.34-4.47-12.16-5.39-3.04-1.53-3.12-1.25-1.07 3.68z"/>
			<path id="Path 2" fill-rule="evenodd" class="s4" d="m672.43 560.19c-5.53 2.33-9.9 5.81-12.4 9.91-2.13 3.47-5.75 11.44-8.05 17.7-2.48 6.79-4.1 15.04-4 20.41 0.1 4.96-0.42 8.94-1.16 8.85-0.73-0.09-7.91-8.2-15.95-18.03-11.43-13.96-16.09-18.29-21.28-19.77-3.66-1.04-9.44-1.34-12.86-0.67-3.41 0.67-9.79 3.12-14.18 5.44-4.39 2.32-12.77 8.43-18.62 13.57-5.85 5.15-12.59 12.74-14.97 16.87-3.43 5.95-4.28 9.85-4.1 18.89 0.17 8.84 1.54 14.16 6.1 23.73 3.23 6.79 6.62 11.91 7.52 11.39 0.91-0.52 1.42-4.79 1.15-9.49-0.28-4.9 0.65-10.97 2.19-14.24 1.48-3.13 5.35-8.57 8.61-12.08 3.25-3.52 9.1-8.39 13-10.83 3.9-2.44 12.28-5.86 18.62-7.6 8.14-2.24 14.92-2.82 23.05-1.98 6.34 0.65 14.72 2.93 18.62 5.07 3.9 2.13 9.39 6.61 12.2 9.95 2.81 3.35 4.61 5.01 3.99 3.71-0.61-1.31-0.92-2.37-0.67-2.36 0.24 0 5.23 2.12 11.08 4.7 5.85 2.58 12.03 4.71 13.74 4.73 2.35 0.04 1.81-1.11-2.22-4.7-2.92-2.61-6.03-7.52-6.91-10.91-0.88-3.4-1.01-9.16-0.3-12.82 0.72-3.65 2.36-8.78 3.65-11.39 1.29-2.61 4.41-7.61 6.94-11.11 2.53-3.5 8.59-9.13 13.47-12.5 4.87-3.38 12.06-7.48 15.96-9.13 4.48-1.89 6.11-3.34 4.43-3.93-1.46-0.52-9.44-1.87-17.73-3.02-8.29-1.14-16.27-2.05-17.73-2.01-1.47 0.03-6.5 1.68-11.19 3.65zm-514.87 10.23c-7.98 1.21-15.16 2.8-15.96 3.53-0.8 0.74 1.74 2.3 5.64 3.47 3.9 1.17 11.39 5.26 16.64 9.1 5.26 3.84 12.29 11.25 15.62 16.47 3.34 5.22 6.82 12.48 7.74 16.13 0.91 3.66 1.07 9.55 0.34 13.1-0.76 3.66-3.83 8.8-7.09 11.87-3.55 3.33-4.75 5.41-3.11 5.41 1.47 0 7.25-1.68 12.86-3.73 5.61-2.05 10.79-3.33 11.52-2.85 0.74 0.49 2.8-2.75 4.59-7.18 1.79-4.44 4.59-9.14 6.21-10.45 2.23-1.79 2.68-4.1 1.86-9.49-0.59-3.91-2.75-11.81-4.78-17.56-2.04-5.74-6.14-13.32-9.11-16.85-2.98-3.52-7.61-7.58-10.29-9.01-2.68-1.44-7.87-2.96-11.53-3.38-3.65-0.43-13.17 0.21-21.15 1.42zm98.77 8.95c-4.55 1.32-9.88 6.32-20.39 19.14l-14.23 17.34c12.37-2.61 21.95-3.27 29.26-3.15 8.66 0.14 16.7 1.58 23.05 4.13 5.98 2.4 13.74 7.83 20.05 14.02 5.67 5.56 11.07 12.67 12.02 15.8 0.95 3.13 1.5 9.69 1.23 14.57-0.27 4.88 0.1 9.36 0.83 9.96 0.73 0.61 3.9-4.67 7.03-11.71 3.13-7.05 6.02-16.66 6.43-21.36 0.41-4.7 0.16-11.96-0.57-16.14-1.01-5.82-3.74-10.13-11.75-18.51-5.75-6-15.03-13.67-20.64-17.05-5.61-3.37-10.99-6.27-11.97-6.44-0.98-0.16-4.57-0.77-7.98-1.34-3.41-0.58-8.98-0.24-12.37 0.74zm160.43 29.86c-5.38 1.91-11.66 6.16-15.96 10.8-5.49 5.91-8.19 11.28-11.95 23.77-2.68 8.88-4.9 16.99-4.94 18.04-0.04 1.04 1.35 0.45 3.09-1.31 1.74-1.76 7.95-5.52 13.8-8.34 8.71-4.21 14.01-5.31 29.26-6.06 13.97-0.69 21.16-0.15 28.81 2.17 5.61 1.7 13.19 4.95 16.85 7.22 3.65 2.27 8.16 5.47 10 7.12 1.85 1.65 4.64 5.29 6.21 8.09 2.1 3.75 3.55 4.65 5.51 3.39 1.98-1.27 2.8-6.17 3.24-19.33 0.41-12.67-0.21-19.9-2.22-25.7-1.56-4.49-5.35-10.15-8.56-12.76-3.27-2.66-11.13-5.93-18.17-7.56-6.83-1.58-20-2.83-29.26-2.78-10.78 0.05-20.04 1.22-25.71 3.24z"/>
			<path id="Path 3" fill-rule="evenodd" class="s5" d="m720.04 562.17c0.32 0.53-2.35 2.14-5.95 3.58-3.59 1.45-10.73 5.54-15.85 9.09-5.13 3.55-11.19 9.2-13.47 12.56-2.28 3.35-5.2 8.23-6.49 10.84-1.29 2.61-2.93 7.74-3.65 11.39-0.71 3.66-0.62 9.21 0.22 12.34 0.84 3.13 3.36 7.59 5.59 9.91 2.29 2.37 7.93 4.96 12.93 5.92 5.18 1 12.18 1.02 16.84 0.04 4.39-0.92 11.97-3.72 16.85-6.23 4.87-2.5 12.65-8.47 17.29-13.26 4.63-4.8 10-12.35 11.93-16.79 1.93-4.43 3.52-11.69 3.54-16.13 0.03-6.26-1.15-9.56-5.28-14.71-3.47-4.35-7.31-6.95-11.08-7.51-3.17-0.48-9.87-1.12-14.88-1.43-5.02-0.3-8.86-0.13-8.54 0.39zm-591.42 11.25c-6.34 0.64-13.12 2.1-15.07 3.23-1.95 1.14-5.37 4.54-7.6 7.56-2.75 3.73-4.02 7.92-3.95 13.08 0.06 4.18 1.68 11.23 3.61 15.67 1.93 4.43 6.5 11.3 10.16 15.25 3.65 3.96 10.24 9.46 14.63 12.24 4.38 2.78 12.76 6.4 18.61 8.03 7.05 1.98 13.34 2.53 18.62 1.65 4.79-0.81 10.11-3.37 13.3-6.4 2.93-2.78 5.92-7.96 6.65-11.51 0.73-3.55 0.57-9.44-0.34-13.1-0.92-3.65-4.4-10.91-7.74-16.13-3.33-5.22-10.36-12.63-15.62-16.47-5.25-3.84-12.54-7.9-16.2-9.02-3.65-1.12-6.34-2.89-5.98-3.94 0.37-1.04 0.17-1.76-0.44-1.6-0.61 0.17-6.3 0.83-12.64 1.46zm102.36 40.55c-4.65 1.27-11.39 4.87-14.97 8-3.59 3.13-7.96 9.33-9.72 13.77-2.11 5.33-2.81 10.15-2.06 14.23 0.63 3.4 2.16 8.31 3.4 10.92 1.24 2.61 4.91 7.62 8.17 11.14 3.25 3.51 9.1 8.38 13 10.82 3.91 2.44 12.28 5.86 18.62 7.61 8.04 2.2 14.88 2.81 22.61 1.98 6.1-0.65 14.81-3.1 19.37-5.45 4.55-2.35 10.34-6.98 12.85-10.28 3.24-4.26 4.72-8.69 5.07-15.19 0.27-5.05-0.28-11.74-1.23-14.87-0.95-3.13-6.35-10.24-12.02-15.8-6.44-6.32-13.95-11.53-20.05-13.93-5.36-2.1-15.34-4.15-22.16-4.55-6.83-0.39-16.22 0.32-20.88 1.6zm369.3 0.5c-5.36 1.61-12.95 4.93-16.85 7.37-3.9 2.44-9.75 7.31-13 10.83-3.26 3.51-7.05 8.74-8.43 11.61-1.49 3.11-2.32 9.5-2.06 15.82 0.34 8.11 1.51 12 5.02 16.61 2.51 3.3 8.49 8.11 13.29 10.67 7.36 3.93 11.25 4.65 24.69 4.62 11.93-0.03 18.42-1.06 25.71-4.07 5.36-2.21 14.04-8.13 19.29-13.16 5.25-5.02 10.63-11.48 11.97-14.36 1.34-2.87 2.45-9.27 2.48-14.23 0.04-6.95-1.12-10.77-5.02-16.61-3.03-4.54-8.59-9.42-13.79-12.14-5.94-3.08-12.7-4.75-21.14-5.21-7.69-0.42-16.12 0.43-22.16 2.25zm-187.07 33.04c-2.92 0.78-8.51 2.87-12.41 4.64-3.9 1.77-9.89 5.27-13.3 7.77-3.41 2.5-7.9 7.8-9.98 11.77-2.07 3.98-4.27 10.44-4.87 14.35-0.79 5.1-0.15 9.14 2.28 14.24 1.86 3.92 5.65 9.37 8.42 12.13 2.77 2.76 8.23 6.7 12.13 8.76 3.9 2.06 9.89 4.72 13.3 5.91 3.41 1.19 10.59 2.95 15.96 3.9 6.78 1.21 13.8 0.99 23.05-0.72 7.31-1.36 16.49-3.89 20.39-5.63 3.9-1.74 10.18-5.48 13.96-8.3 3.78-2.82 8.74-8.55 11.04-12.73 2.35-4.26 4.2-10.71 4.22-14.71 0.02-3.92-1.48-10.32-3.34-14.24-1.85-3.91-5.24-8.89-7.53-11.07-2.29-2.17-6.96-5.68-10.37-7.79-3.41-2.12-10.6-5.26-15.96-6.99-6.27-2.02-15.45-3.06-25.71-2.92-8.78 0.11-18.35 0.85-21.28 1.63z"/>
			<path id="Path 4" fill-rule="evenodd" class="s6" d="m407.83 232.17c-3.87 5.45-9.32 13.8-12.13 18.56-2.8 4.76-7.9 14.63-11.33 21.94-3.43 7.31-9.39 22.26-13.24 33.22-3.85 10.97-9.8 31.47-13.22 45.56-4.97 20.5-6.41 30.58-7.18 50.31-0.87 21.93-0.58 25.63 2.56 33.22 1.95 4.7 4.11 11.11 4.8 14.24 0.7 3.13 0.35 9.54-0.78 14.24-1.13 4.7-4.17 11.48-6.76 15.08-2.6 3.6-8.31 8.19-12.7 10.21-4.94 2.27-10.34 3.33-14.18 2.78-3.42-0.48-10.97-3.37-16.79-6.41-6.37-3.32-15.62-10.82-23.24-18.81-9.39-9.86-14.32-16.97-19.04-27.53-3.5-7.83-7.59-19.79-9.09-26.58-1.49-6.78-2.73-15.11-2.74-18.51-0.02-3.39-0.83-6.17-1.8-6.17-0.98 0-4.2 5.77-7.17 12.82-2.97 7.05-6.67 19.65-8.22 28-1.96 10.56-2.46 19.53-1.65 29.42 0.64 7.83 2.4 19.37 3.91 25.63 1.52 6.27 6.29 19.29 10.6 28.95 6.63 14.84 8.88 18.12 14.5 21.14 3.66 1.96 14.23 6.21 23.49 9.43 9.27 3.22 24.83 7.55 34.58 9.63 9.75 2.07 26.91 4.77 38.12 6.01 13.13 1.44 36.82 1.87 66.49 1.21 28.97-0.65 53.03-2.17 64.72-4.11 10.24-1.7 28.6-5.73 40.79-8.96 12.19-3.23 27.75-8.35 34.57-11.38 6.83-3.03 12.53-5.7 12.68-5.93 0.14-0.24 2.7-5.55 5.69-11.82 2.98-6.26 7.53-17.8 10.12-25.63 3.6-10.9 4.91-19.13 5.59-35.12 0.54-12.66 0.05-25.36-1.24-32.27-1.18-6.26-4.96-17.8-8.4-25.63l-6.26-14.23c-4.03 25.01-7.7 38.68-10.76 46.51-3.06 7.83-8.83 18.93-12.82 24.68-3.99 5.74-11.59 14.01-16.89 18.37-5.29 4.36-14.01 10.12-19.38 12.8-5.36 2.67-11.74 4.86-14.18 4.86-2.44 0.01-7.23-0.78-10.64-1.76-3.41-0.97-9.05-5.02-12.53-9-3.47-3.98-7.37-10.66-8.65-14.83-1.39-4.55-1.88-10.83-1.21-15.67 0.61-4.43 2.4-10.84 3.97-14.23 1.57-3.4 3.27-11.73 3.77-18.51 0.5-6.79-0.03-20.03-1.19-29.43-1.15-9.39-4.01-25.2-6.34-35.12-2.33-9.92-7.11-27-10.61-37.96-3.5-10.97-11.1-30.19-16.88-42.72-5.78-12.53-14.73-28.75-19.88-36.04-5.14-7.3-10.58-13.52-12.08-13.82-1.56-0.32-5.71 3.66-9.75 9.36z"/>
			<path id="Path 5" fill-rule="evenodd" class="s7" d="m408.22 292.93c-4.31 9.74-10.38 25.83-13.5 35.74-3.12 9.92-7.7 26.58-10.17 37.02-3.66 15.46-4.67 25.17-5.42 52.21-0.63 22.94-0.23 36.45 1.29 43.66 1.22 5.74 4.16 15.14 6.55 20.88 2.39 5.74 7.27 14.64 10.86 19.77 3.58 5.13 9.31 11.33 12.72 13.78 4.02 2.87 8.71 4.41 13.3 4.35 5.63-0.06 8.2-1.34 12.47-6.18 2.96-3.35 7.05-10.79 9.1-16.53 2.04-5.74 4.8-16.85 6.14-24.68 1.53-9.01 2.42-28.52 2.43-53.15 0-37.76-0.16-39.57-5.57-60.75-3.06-12.01-8.55-30.38-12.19-40.82-3.64-10.44-8.91-23.89-11.71-29.9-2.81-6-5.86-11.41-6.79-12.01-0.92-0.6-5.21 6.87-9.51 16.61z"/>
		</g>
	</g>
</svg>